<svg id="svg"
  xmlns="http://www.w3.org/2000/svg"
  xmlns:xlink="http://www.w3.org/1999/xlink" width="400" height="315.66265060240966" viewBox="0, 0, 400,315.66265060240966">
  <g id="svgg">
    <path id="path0" d="M207.343 0.453 C 203.089 1.164,206.692 -1.770,152.353 45.235 L 104.240 86.857 58.089 86.966 L 11.939 87.076 10.188 87.694 C 5.657 89.295,2.547 92.425,0.918 97.022 L 0.329 98.686 0.271 156.684 C 0.208 220.778,0.112 216.248,1.610 219.379 C 3.116 222.528,5.308 224.751,8.434 226.302 C 11.691 227.917,8.253 227.812,57.991 227.817 L 102.729 227.820 151.419 269.938 C 203.067 314.614,201.648 313.405,203.369 314.213 C 211.990 318.260,221.541 313.865,224.259 304.600 C 224.721 303.023,224.997 18.034,224.540 13.718 C 223.604 4.875,215.996 -0.993,207.343 0.453 M260.069 72.057 C 250.806 74.705,246.504 85.447,251.402 93.699 C 251.848 94.450,264.123 109.016,278.680 126.068 C 293.237 143.121,305.148 157.123,305.148 157.184 C 305.148 157.245,293.345 171.118,278.919 188.012 C 252.181 219.326,251.223 220.490,250.381 222.713 C 245.912 234.515,256.916 246.038,268.840 242.043 C 272.790 240.720,271.910 241.658,299.636 209.181 C 313.307 193.168,324.557 180.066,324.637 180.066 C 324.716 180.066,335.566 192.708,348.746 208.160 C 374.483 238.332,375.489 239.466,377.658 240.759 C 389.638 247.897,403.937 235.806,398.895 222.800 C 397.917 220.276,398.652 221.173,370.595 188.312 C 356.105 171.341,344.218 157.372,344.180 157.269 C 344.141 157.166,356.026 143.126,370.590 126.068 C 397.315 94.767,398.110 93.794,399.035 91.246 C 403.533 78.853,390.530 67.269,378.642 73.079 C 375.993 74.373,375.072 75.393,349.653 105.165 C 335.980 121.180,324.722 134.283,324.634 134.283 C 324.547 134.283,313.379 121.283,299.816 105.396 C 286.254 89.508,274.511 75.916,273.720 75.192 C 270.301 72.059,264.622 70.755,260.069 72.057 " stroke="none" fill="#ccc" fill-rule="evenodd"></path>
  </g>
</svg>