<svg xmlns="http://www.w3.org/2000/svg"
  xmlns:xlink="http://www.w3.org/1999/xlink" id="svg" viewBox="66.66 66.48 266.22 240.23">
  <g id="svgg">
    <path id="path0" d="M275.164 67.738 C 272.410 69.113,270.977 70.684,270.947 72.364 C 270.936 72.979,270.639 73.482,270.288 73.482 C 269.936 73.482,269.649 74.776,269.649 76.358 C 269.649 77.939,269.936 79.233,270.288 79.233 C 270.639 79.233,270.927 79.745,270.927 80.370 C 270.927 80.995,271.502 81.922,272.204 82.428 C 272.907 82.935,273.482 83.549,273.482 83.792 C 273.482 84.434,277.609 88.586,278.661 89.003 C 279.172 89.205,279.235 89.378,278.807 89.406 C 278.397 89.434,278.972 90.414,280.085 91.583 C 281.198 92.753,282.971 94.817,284.026 96.169 C 285.080 97.522,286.302 98.989,286.741 99.428 C 287.181 99.868,287.540 100.536,287.540 100.913 C 287.540 101.289,287.779 101.597,288.071 101.597 C 288.363 101.597,289.010 102.388,289.509 103.355 C 290.007 104.321,291.062 105.828,291.853 106.703 C 292.644 107.578,293.291 108.656,293.291 109.099 C 293.291 109.542,293.578 109.904,293.930 109.904 C 294.281 109.904,294.569 110.479,294.569 111.182 C 294.569 111.885,294.856 112.460,295.208 112.460 C 295.559 112.460,295.847 112.891,295.847 113.419 C 295.847 113.946,296.134 114.377,296.486 114.377 C 296.837 114.377,297.125 114.952,297.125 115.655 C 297.125 116.358,297.340 116.938,297.604 116.943 C 297.867 116.949,298.946 118.746,300.000 120.937 C 301.054 123.128,302.133 125.016,302.396 125.133 C 302.660 125.250,302.875 125.897,302.875 126.571 C 302.875 127.244,303.163 127.796,303.514 127.796 C 303.866 127.796,304.153 128.658,304.153 129.712 C 304.153 130.767,304.441 131.629,304.792 131.629 C 305.144 131.629,305.431 132.065,305.431 132.597 C 305.431 133.128,305.714 134.063,306.059 134.673 C 307.231 136.743,311.182 149.373,311.182 151.049 C 311.182 151.966,311.470 152.716,311.821 152.716 C 312.173 152.716,312.460 154.153,312.460 155.911 C 312.460 157.668,312.722 159.105,313.042 159.105 C 315.393 159.105,316.494 201.030,314.351 208.946 C 314.018 210.176,313.744 212.243,313.742 213.541 C 313.740 214.838,313.450 216.077,313.099 216.294 C 312.748 216.511,312.460 217.966,312.460 219.527 C 312.460 221.087,312.173 222.364,311.821 222.364 C 311.470 222.364,311.182 223.514,311.182 224.920 C 311.182 226.326,310.925 227.476,310.610 227.476 C 310.296 227.476,309.902 228.554,309.736 229.872 C 309.569 231.190,308.643 234.281,307.678 236.741 C 306.713 239.201,305.779 241.861,305.603 242.652 C 305.426 243.442,305.028 244.089,304.718 244.089 C 304.407 244.089,304.153 244.808,304.153 245.687 C 304.153 246.565,303.866 247.284,303.514 247.284 C 303.163 247.284,302.871 247.788,302.866 248.403 C 302.861 249.018,301.734 251.581,300.362 254.098 C 298.989 256.616,298.035 258.844,298.241 259.050 C 298.447 259.256,298.280 259.425,297.870 259.425 C 297.460 259.425,297.125 259.856,297.125 260.383 C 297.125 260.911,296.837 261.342,296.486 261.342 C 296.134 261.342,295.847 261.785,295.847 262.327 C 295.847 262.869,295.272 263.929,294.569 264.684 C 293.866 265.438,293.291 266.433,293.291 266.894 C 293.291 267.355,293.075 267.737,292.812 267.744 C 292.548 267.751,291.482 269.189,290.443 270.939 C 289.404 272.689,288.326 274.121,288.047 274.121 C 287.768 274.121,287.540 274.553,287.540 275.080 C 287.540 275.607,287.314 276.038,287.039 276.038 C 286.763 276.038,286.055 276.855,285.465 277.853 C 284.876 278.852,283.232 280.865,281.813 282.327 C 280.394 283.789,279.233 285.137,279.233 285.321 C 279.233 285.666,276.564 288.741,273.163 292.315 C 269.937 295.706,268.044 302.236,270.288 302.236 C 270.639 302.236,270.927 302.832,270.927 303.560 C 270.927 306.156,272.349 306.709,279.028 306.708 C 285.130 306.708,288.818 305.406,288.818 303.253 C 288.818 303.015,290.399 301.226,292.332 299.277 C 294.265 297.329,295.847 295.472,295.847 295.152 C 295.847 294.831,296.134 294.569,296.486 294.569 C 296.837 294.569,297.125 294.279,297.125 293.924 C 297.125 293.569,298.011 292.352,299.094 291.219 C 300.176 290.086,301.532 288.363,302.107 287.391 C 302.681 286.418,303.376 285.623,303.652 285.623 C 303.928 285.623,304.153 285.111,304.153 284.486 C 304.153 283.861,304.728 282.935,305.431 282.428 C 306.134 281.922,306.709 281.271,306.709 280.982 C 306.709 280.485,307.276 279.699,309.105 277.659 C 309.545 277.169,309.904 276.317,309.904 275.764 C 309.904 275.212,310.192 274.760,310.543 274.760 C 310.895 274.760,311.182 274.329,311.182 273.802 C 311.182 273.275,311.470 272.843,311.821 272.843 C 312.173 272.843,312.460 272.268,312.460 271.565 C 312.460 270.863,312.748 270.288,313.099 270.288 C 313.450 270.288,313.738 269.736,313.738 269.063 C 313.738 268.389,313.982 267.742,314.280 267.625 C 315.051 267.322,318.211 261.482,318.211 260.361 C 318.211 259.846,318.498 259.425,318.850 259.425 C 319.201 259.425,319.489 258.850,319.489 258.147 C 319.489 257.444,319.776 256.869,320.128 256.869 C 320.479 256.869,320.767 256.150,320.767 255.272 C 320.767 254.393,321.054 253.674,321.406 253.674 C 321.757 253.674,322.045 253.157,322.045 252.524 C 322.045 251.891,322.292 251.101,322.594 250.767 C 322.897 250.433,323.674 248.578,324.321 246.645 C 324.968 244.712,325.727 242.858,326.008 242.524 C 326.288 242.190,326.518 241.273,326.518 240.485 C 326.518 239.697,326.805 238.875,327.157 238.658 C 327.508 238.441,327.796 237.418,327.796 236.384 C 327.796 235.350,328.053 234.505,328.367 234.505 C 328.682 234.505,329.090 233.427,329.274 232.109 C 329.458 230.791,329.889 228.562,330.232 227.157 C 332.785 216.691,332.908 214.861,332.884 187.540 C 332.865 166.418,332.660 159.750,331.919 156.230 C 331.401 153.770,330.798 150.679,330.580 149.361 C 330.362 148.043,329.933 146.965,329.628 146.965 C 329.323 146.965,329.073 145.671,329.073 144.089 C 329.073 142.508,328.786 141.214,328.435 141.214 C 328.083 141.214,327.796 140.191,327.796 138.940 C 327.796 137.587,327.537 136.826,327.157 137.061 C 326.776 137.296,326.518 136.535,326.518 135.181 C 326.518 133.931,326.230 132.907,325.879 132.907 C 325.527 132.907,325.240 132.486,325.240 131.971 C 325.240 131.109,323.963 127.773,322.606 125.089 C 322.297 124.478,322.045 123.544,322.045 123.012 C 322.045 122.480,321.757 122.045,321.406 122.045 C 321.054 122.045,320.767 121.326,320.767 120.447 C 320.767 119.569,320.479 118.850,320.128 118.850 C 319.776 118.850,319.489 118.275,319.489 117.572 C 319.489 116.869,319.201 116.294,318.850 116.294 C 318.498 116.294,318.211 115.719,318.211 115.016 C 318.211 114.313,317.923 113.738,317.572 113.738 C 317.220 113.738,316.933 113.343,316.933 112.860 C 316.933 111.812,313.703 105.842,312.972 105.538 C 312.690 105.421,312.460 104.774,312.460 104.100 C 312.460 103.427,312.243 102.875,311.977 102.875 C 311.711 102.875,311.080 101.941,310.575 100.799 C 310.069 99.657,309.418 98.435,309.128 98.083 C 308.838 97.732,307.888 96.581,307.017 95.527 C 306.146 94.473,305.433 93.251,305.432 92.812 C 305.432 92.372,305.144 92.013,304.792 92.013 C 304.441 92.013,304.153 91.712,304.153 91.345 C 304.153 90.977,303.435 89.958,302.556 89.079 C 301.677 88.201,300.958 87.242,300.958 86.949 C 300.958 86.656,299.808 85.231,298.403 83.782 C 296.997 82.334,295.847 80.892,295.847 80.579 C 295.847 79.557,283.836 67.732,282.798 67.732 C 282.243 67.732,281.789 67.444,281.789 67.093 C 281.789 66.033,277.801 66.422,275.164 67.738 M182.109 89.457 C 182.109 89.808,181.534 90.096,180.831 90.096 C 180.128 90.096,179.553 90.383,179.553 90.735 C 179.553 91.086,179.245 91.374,178.868 91.374 C 178.492 91.374,177.805 91.733,177.341 92.173 C 176.878 92.612,175.701 93.546,174.726 94.249 C 173.750 94.952,172.589 95.887,172.145 96.326 C 171.701 96.765,171.016 97.125,170.624 97.125 C 170.231 97.125,169.191 97.843,168.313 98.722 C 167.434 99.601,166.512 100.321,166.265 100.322 C 166.017 100.324,164.896 101.187,163.773 102.239 C 162.650 103.292,161.428 104.153,161.057 104.153 C 160.687 104.153,160.383 104.441,160.383 104.792 C 160.383 105.144,160.075 105.431,159.699 105.431 C 159.322 105.431,158.651 105.791,158.207 106.230 C 157.763 106.669,156.610 107.604,155.645 108.307 C 154.680 109.010,153.123 110.231,152.185 111.022 C 151.247 111.812,150.120 112.459,149.681 112.459 C 149.241 112.460,148.882 112.748,148.882 113.099 C 148.882 113.450,148.581 113.738,148.214 113.738 C 147.846 113.738,146.876 114.385,146.058 115.176 C 145.239 115.966,143.767 117.188,142.786 117.891 C 141.806 118.594,140.640 119.529,140.196 119.968 C 139.752 120.407,139.080 120.767,138.704 120.767 C 138.327 120.767,138.019 121.054,138.019 121.406 C 138.019 121.757,137.711 122.045,137.335 122.045 C 136.958 122.045,136.271 122.404,135.808 122.843 C 135.345 123.283,134.197 124.199,133.257 124.880 C 132.317 125.561,130.948 126.640,130.213 127.276 C 129.479 127.913,128.647 128.435,128.366 128.435 C 128.084 128.435,127.135 129.153,126.256 130.032 C 125.378 130.911,124.490 131.629,124.283 131.629 C 123.887 131.629,122.893 132.401,120.576 134.505 C 119.802 135.208,118.379 136.191,117.412 136.689 C 116.446 137.188,115.655 137.835,115.655 138.127 C 115.655 138.419,115.354 138.658,114.987 138.658 C 114.620 138.658,113.600 139.377,112.721 140.256 C 111.843 141.134,110.921 141.854,110.674 141.855 C 110.426 141.855,109.217 142.717,107.987 143.770 L 105.751 145.684 88.498 145.808 C 79.010 145.876,70.599 145.938,69.808 145.944 C 69.018 145.951,68.371 146.183,68.371 146.460 C 68.371 146.738,68.011 146.965,67.572 146.965 C 66.260 146.965,66.419 228.274,67.732 228.869 C 68.259 229.108,76.558 229.323,86.175 229.348 C 104.042 229.394,108.626 230.080,108.626 232.706 C 108.626 232.992,109.058 233.227,109.585 233.227 C 110.112 233.227,110.543 233.514,110.543 233.866 C 110.543 234.217,110.833 234.505,111.188 234.505 C 111.543 234.505,112.735 235.367,113.839 236.422 C 114.942 237.476,116.076 238.339,116.360 238.339 C 116.643 238.339,117.535 238.986,118.342 239.776 C 119.148 240.567,120.599 241.622,121.565 242.121 C 122.532 242.619,123.323 243.266,123.323 243.558 C 123.323 243.851,123.622 244.089,123.989 244.089 C 124.355 244.089,125.002 244.382,125.426 244.740 C 128.408 247.255,129.605 248.161,131.150 249.076 C 132.117 249.648,132.907 250.341,132.907 250.617 C 132.907 250.893,133.208 251.118,133.575 251.118 C 133.943 251.118,134.962 251.837,135.841 252.716 C 136.719 253.594,137.641 254.313,137.888 254.314 C 138.136 254.314,139.174 255.033,140.195 255.911 C 141.216 256.789,142.282 257.508,142.562 257.508 C 142.843 257.508,143.792 258.227,144.670 259.105 C 145.549 259.984,146.437 260.703,146.643 260.703 C 147.031 260.703,147.901 261.373,150.379 263.578 C 151.169 264.281,152.215 264.946,152.704 265.056 C 153.193 265.165,154.076 265.812,154.667 266.493 C 155.258 267.174,155.943 267.732,156.191 267.732 C 156.438 267.732,157.042 268.091,157.531 268.530 C 159.718 270.491,160.384 270.943,160.393 270.472 C 160.399 270.195,160.614 270.271,160.872 270.641 C 161.131 271.011,162.492 272.158,163.898 273.190 C 165.304 274.222,166.919 275.572,167.487 276.191 C 168.055 276.810,168.745 277.316,169.019 277.316 C 169.293 277.316,170.745 278.323,172.246 279.553 C 173.747 280.783,175.223 281.789,175.526 281.789 C 175.828 281.789,176.490 282.364,176.997 283.067 C 177.503 283.770,178.406 284.345,179.002 284.345 C 179.598 284.345,180.181 284.619,180.298 284.954 C 180.729 286.187,185.648 286.465,186.791 285.322 C 187.874 284.239,188.541 92.615,187.472 89.829 C 187.037 88.696,182.109 88.355,182.109 89.457 M244.728 97.764 C 244.728 98.115,244.153 98.403,243.450 98.403 C 242.748 98.403,242.173 98.690,242.173 99.042 C 242.173 99.393,241.741 99.681,241.214 99.681 C 240.687 99.681,240.256 100.112,240.256 100.639 C 240.256 101.166,239.968 101.597,239.617 101.597 C 239.265 101.597,238.978 102.299,238.978 103.157 C 238.978 104.015,238.690 104.895,238.339 105.112 C 237.987 105.329,237.700 106.209,237.700 107.066 C 237.700 107.924,237.987 108.626,238.339 108.626 C 238.690 108.626,238.978 109.341,238.978 110.214 C 238.978 111.299,240.293 113.173,243.125 116.125 C 245.406 118.502,247.275 120.701,247.278 121.011 C 247.282 121.322,247.791 122.040,248.410 122.609 C 249.029 123.177,250.379 124.792,251.411 126.198 C 252.443 127.604,253.469 128.898,253.692 129.073 C 253.914 129.249,254.493 130.307,254.979 131.424 C 255.465 132.540,256.089 133.314,256.366 133.143 C 256.642 132.972,256.869 133.424,256.869 134.148 C 256.869 134.871,257.085 135.471,257.348 135.480 C 257.612 135.489,258.690 137.354,259.744 139.625 C 260.799 141.896,261.877 143.757,262.141 143.762 C 262.404 143.766,262.620 144.489,262.620 145.367 C 262.620 146.246,262.907 146.965,263.259 146.965 C 263.610 146.965,263.898 147.684,263.898 148.562 C 263.898 149.441,264.185 150.160,264.537 150.160 C 264.888 150.160,265.176 150.862,265.176 151.719 C 265.176 152.577,265.430 153.436,265.741 153.629 C 266.052 153.821,266.452 154.772,266.629 155.743 C 266.806 156.714,267.558 159.589,268.300 162.132 C 269.042 164.676,269.649 167.623,269.649 168.682 C 269.649 169.741,269.936 170.607,270.288 170.607 C 270.673 170.607,270.927 173.269,270.927 177.316 C 270.927 181.363,271.180 184.026,271.565 184.026 C 271.921 184.026,272.204 185.742,272.204 187.897 C 272.204 190.137,271.953 191.613,271.607 191.399 C 271.258 191.184,270.885 193.757,270.711 197.592 C 270.391 204.623,269.735 208.920,268.052 215.016 C 267.469 217.125,266.837 219.501,266.647 220.297 C 266.457 221.093,266.048 221.901,265.738 222.092 C 265.429 222.283,265.176 223.285,265.176 224.319 C 265.176 225.352,264.888 226.198,264.537 226.198 C 264.185 226.198,263.898 226.773,263.898 227.476 C 263.898 228.179,263.610 228.754,263.259 228.754 C 262.907 228.754,262.620 229.312,262.620 229.994 C 262.620 230.676,262.332 231.412,261.981 231.629 C 261.629 231.847,261.342 232.582,261.342 233.265 C 261.342 233.947,261.098 234.505,260.799 234.505 C 260.501 234.505,259.723 235.799,259.071 237.380 C 258.419 238.962,257.656 240.256,257.377 240.256 C 257.098 240.256,256.869 240.699,256.869 241.241 C 256.869 241.783,256.294 242.843,255.591 243.598 C 254.888 244.352,254.313 245.346,254.313 245.807 C 254.313 246.268,254.088 246.645,253.812 246.645 C 253.536 246.645,252.766 247.580,252.100 248.722 C 251.434 249.864,250.366 251.264,249.726 251.832 C 249.086 252.401,248.562 253.208,248.562 253.627 C 248.562 254.046,248.275 254.211,247.923 253.994 C 247.572 253.776,247.284 253.901,247.284 254.271 C 247.284 255.008,245.534 257.197,242.332 260.460 C 241.190 261.625,240.256 262.874,240.256 263.237 C 240.256 263.601,239.968 263.898,239.617 263.898 C 239.265 263.898,238.978 264.456,238.978 265.138 C 238.978 265.820,238.690 266.556,238.339 266.773 C 237.535 267.270,237.514 269.320,238.297 270.775 C 238.625 271.386,239.270 272.819,239.731 273.962 C 240.191 275.104,240.929 276.038,241.370 276.038 C 241.811 276.038,242.173 276.263,242.173 276.538 C 242.173 277.810,247.796 278.722,250.275 277.853 C 252.197 277.179,262.111 268.371,260.948 268.371 C 260.813 268.371,261.206 267.839,261.821 267.189 C 263.536 265.376,265.176 263.282,265.176 262.905 C 265.176 262.531,266.089 261.378,268.092 259.223 C 268.817 258.443,269.822 256.875,270.324 255.739 C 270.827 254.603,271.456 253.674,271.721 253.674 C 271.987 253.674,272.204 253.231,272.204 252.689 C 272.204 252.147,272.738 251.131,273.390 250.431 C 274.042 249.731,275.120 248.022,275.786 246.631 C 276.452 245.241,277.212 244.101,277.476 244.097 C 277.740 244.093,277.955 243.531,277.955 242.849 C 277.955 242.167,278.243 241.431,278.594 241.214 C 278.946 240.997,279.233 240.261,279.233 239.579 C 279.233 238.897,279.521 238.339,279.872 238.339 C 280.224 238.339,280.511 237.903,280.511 237.372 C 280.511 236.840,280.765 235.905,281.076 235.295 C 282.329 232.831,283.497 229.532,286.915 218.804 C 287.259 217.725,287.540 215.784,287.540 214.491 C 287.540 213.198,287.827 212.141,288.179 212.141 C 288.531 212.141,288.818 210.479,288.818 208.435 C 288.818 206.396,289.120 204.427,289.488 204.058 C 289.919 203.627,290.158 197.878,290.158 187.972 C 290.158 178.437,289.903 172.079,289.488 171.305 C 289.120 170.616,288.818 168.595,288.818 166.815 C 288.818 165.035,288.530 163.578,288.179 163.578 C 287.827 163.578,287.540 162.308,287.540 160.756 C 287.540 159.204,287.265 157.838,286.929 157.721 C 286.593 157.604,286.247 156.430,286.159 155.112 C 286.072 153.794,285.772 152.716,285.492 152.716 C 285.213 152.716,284.982 152.069,284.980 151.278 C 284.978 150.487,284.547 149.017,284.022 148.010 C 283.497 147.003,283.067 145.655,283.067 145.013 C 283.067 144.371,282.780 143.668,282.428 143.450 C 282.077 143.233,281.789 142.497,281.789 141.815 C 281.789 141.133,281.502 140.575,281.150 140.575 C 280.799 140.575,280.511 139.856,280.511 138.978 C 280.511 138.099,280.224 137.380,279.872 137.380 C 279.521 137.380,279.233 136.805,279.233 136.102 C 279.233 135.399,278.946 134.824,278.594 134.824 C 278.243 134.824,277.955 134.421,277.955 133.927 C 277.955 133.434,276.949 131.250,275.719 129.073 C 274.489 126.897,273.482 124.857,273.482 124.539 C 273.482 124.222,273.195 123.962,272.843 123.962 C 272.492 123.962,272.204 123.530,272.204 123.003 C 272.204 122.476,271.917 122.045,271.565 122.045 C 271.214 122.045,270.927 121.720,270.927 121.322 C 270.927 120.486,266.520 114.161,265.716 113.845 C 265.419 113.727,265.176 113.224,265.176 112.726 C 265.176 112.228,264.888 111.821,264.537 111.821 C 264.185 111.821,263.898 111.531,263.898 111.176 C 263.898 110.822,263.035 109.629,261.981 108.526 C 260.927 107.422,260.064 106.275,260.064 105.976 C 260.064 105.676,259.585 105.431,258.999 105.431 C 258.413 105.431,258.106 105.259,258.316 105.049 C 258.938 104.428,252.339 98.403,251.036 98.403 C 250.378 98.403,249.840 98.115,249.840 97.764 C 249.840 97.412,248.690 97.125,247.284 97.125 C 245.879 97.125,244.728 97.412,244.728 97.764 M216.942 128.632 C 211.419 131.944,210.801 138.845,215.560 144.043 C 217.018 145.635,218.499 147.304,218.850 147.750 C 219.202 148.197,220.282 149.521,221.251 150.693 C 222.219 151.865,222.822 153.131,222.589 153.507 C 222.339 153.912,222.468 154.005,222.904 153.735 C 223.342 153.465,223.642 153.685,223.642 154.275 C 223.642 154.823,223.930 155.272,224.281 155.272 C 224.633 155.272,224.920 155.823,224.920 156.496 C 224.920 157.170,225.147 157.817,225.425 157.934 C 226.095 158.217,229.393 165.281,229.393 166.433 C 229.393 166.930,229.681 167.514,230.032 167.732 C 230.383 167.949,230.671 168.972,230.671 170.006 C 230.671 171.039,230.958 171.885,231.310 171.885 C 231.661 171.885,231.949 173.483,231.949 175.437 C 231.949 177.642,232.191 178.839,232.588 178.594 C 233.003 178.338,233.227 181.463,233.227 187.502 C 233.227 193.278,232.985 196.805,232.588 196.805 C 232.236 196.805,231.949 198.387,231.949 200.319 C 231.949 202.252,231.661 203.834,231.310 203.834 C 230.958 203.834,230.671 204.557,230.671 205.440 C 230.671 206.323,230.430 207.545,230.135 208.156 C 229.841 208.766,228.835 210.851,227.899 212.790 C 226.964 214.728,226.198 216.669,226.198 217.103 C 226.198 217.537,225.911 217.891,225.559 217.891 C 225.208 217.891,224.920 218.403,224.920 219.028 C 224.920 219.654,224.345 220.580,223.642 221.086 C 222.939 221.593,222.364 222.306,222.364 222.672 C 222.364 223.037,221.662 224.093,220.805 225.018 C 219.947 225.943,219.420 226.874,219.633 227.088 C 219.847 227.301,219.542 227.476,218.956 227.476 C 218.371 227.476,217.891 227.792,217.891 228.178 C 217.891 228.564,217.101 229.643,216.134 230.574 C 212.821 233.768,210.927 241.874,213.308 242.668 C 213.720 242.806,214.058 243.202,214.058 243.549 C 214.058 247.622,224.286 249.253,227.837 245.746 C 228.225 245.362,229.309 244.476,230.246 243.778 C 231.183 243.080,231.949 242.145,231.949 241.701 C 231.949 241.258,232.174 240.895,232.450 240.895 C 232.726 240.895,233.419 240.104,233.991 239.137 C 234.906 237.592,235.812 236.395,238.327 233.414 C 238.685 232.989,238.978 232.342,238.978 231.976 C 238.978 231.610,239.265 231.310,239.617 231.310 C 239.968 231.310,240.256 230.759,240.256 230.085 C 240.256 229.412,240.493 228.765,240.784 228.647 C 241.523 228.350,246.006 219.888,246.006 218.791 C 246.006 218.296,246.294 217.891,246.645 217.891 C 246.997 217.891,247.284 217.029,247.284 215.974 C 247.284 214.920,247.572 214.058,247.923 214.058 C 248.275 214.058,248.562 213.051,248.562 211.821 C 248.562 210.591,248.820 209.585,249.134 209.585 C 249.449 209.585,249.862 208.506,250.052 207.188 C 250.243 205.871,250.838 202.061,251.375 198.722 C 252.603 191.088,252.600 184.823,251.366 176.677 C 250.834 173.163,250.243 169.209,250.052 167.891 C 249.862 166.573,249.449 165.495,249.134 165.495 C 248.820 165.495,248.562 164.489,248.562 163.259 C 248.562 162.029,248.275 161.022,247.923 161.022 C 247.572 161.022,247.284 160.495,247.284 159.850 C 247.284 159.205,246.278 156.610,245.048 154.082 C 243.818 151.555,242.812 149.207,242.812 148.865 C 242.812 148.523,242.524 148.243,242.173 148.243 C 241.821 148.243,241.534 147.668,241.534 146.965 C 241.534 146.262,241.246 145.687,240.895 145.687 C 240.543 145.687,240.256 145.256,240.256 144.728 C 240.256 144.201,239.968 143.770,239.617 143.770 C 239.265 143.770,238.978 143.462,238.978 143.085 C 238.978 142.709,238.618 142.037,238.179 141.593 C 237.740 141.149,236.805 139.984,236.102 139.003 C 235.399 138.022,234.177 136.550,233.387 135.731 C 232.596 134.913,231.949 134.077,231.949 133.874 C 231.949 133.226,227.546 129.073,226.858 129.073 C 226.495 129.073,226.198 128.786,226.198 128.435 C 226.198 127.537,218.493 127.702,216.942 128.632 " stroke="none" fill="#ccc" fill-rule="evenodd"/>
  </g>
</svg>